# xmcd
#
# Track frame offsets: 
#        150
#        14134
#        27739
#        40945
#        55011
#        78014
#        90730
#        105516
#        118596
#        131017
#        142445
#        156094
#        170489
#        183793
#        195075
#        208019
#        223635
#
# Disc length: 3147 seconds
#
# Revision: 1
# Processed by: cddbd v1.5.2PL0 Copyright (c) Steve Scherf et al.
# Submitted via: ExactAudioCopyFreeDBPlugin 1.0
#
DISCID=ec0c4911
DTITLE=Various Artist - The Ultimate Jazz Archive:  A Jazz Lunch for 
DTITLE=Your Ears - Bon Appetit! [Membran box set]
DYEAR=2011
DGENRE=Jazz
TTITLE0=Lionel Hampton - I Can't Believe That You Are in Love with Me
TTITLE1=Lionel Hampton - Cool Train
TTITLE2=Lionel Hampton - Gladysee Bounce
TTITLE3=Lionel Hampton - Air Mail Special
TTITLE4=Lionel Hampton - Gates Steps Out
TTITLE5=Lionel Hampton - A Kiss Was Just a Kiss
TTITLE6=Lionel Hampton - Alone
TTITLE7=Lionel Hampton - Love You Like Mad
TTITLE8=Lionel Hampton - Cryin'
TTITLE9=Lionel Hampton - Helpless
TTITLE10=Lionel Hampton - Jumpin' with G.H.
TTITLE11=Lionel Hampton - Sampson's Boogie
TTITLE12=Lionel Hampton - Gabby's Gabbin'
TTITLE13=Lionel Hampton - Don't  Flee the Scene Salty
TTITLE14=Lionel Hampton - Kingfish
TTITLE15=Lionel Hampton - Oh, Lady Be Good
TTITLE16=Lionel Hampton - Oh, Rock
EXTD=
EXTT0=
EXTT1=
EXTT2=
EXTT3=
EXTT4=
EXTT5=
EXTT6=
EXTT7=
EXTT8=
EXTT9=
EXTT10=
EXTT11=
EXTT12=
EXTT13=
EXTT14=
EXTT15=
EXTT16=
PLAYORDER=
